Coordinates
version=1
nRows=54
nColumns=12
inDegrees=yes

Units are S.I. units (second, meters, Newtons, ...)
Angles are in degrees

endheader
time	SC_y	SC_z	SC_x	AC_y	AC_z	AC_x	GH_y	GH_z	GH_yy	EL_x	PS_y
       0.0              -24.93          4.175          56.62          61.85         -18.32         -5.537         -153.9          79.55         -112.6          112.8          132.9
   0.02992              -24.93          4.175          56.62          61.85         -18.32         -5.536         -153.8          79.55         -112.5          112.8          132.9
   0.05985              -24.93          4.175          56.62          61.85         -18.32         -5.536         -153.8          79.54         -112.5          112.8          132.9
   0.08977              -24.94          4.175          56.62          61.85         -18.32         -5.535         -153.8          79.54         -112.5          112.8          132.9
    0.1197              -24.94          4.175          56.62          61.85         -18.32         -5.534         -153.7          79.53         -112.5          112.8          132.9
    0.1496              -24.94          4.175          56.62          61.85         -18.32         -5.533         -153.7          79.53         -112.4          112.7          132.9
    0.1795              -24.94          4.175          56.62          61.85         -18.32         -5.532         -153.7          79.52         -112.4          112.7          132.9
    0.2095              -24.95          4.175          56.62          61.86         -18.31         -5.531         -153.6          79.52         -112.4          112.7          132.9
    0.2394              -24.95          4.175          56.63          61.86         -18.31          -5.53         -153.6          79.51         -112.4          112.7          132.9
    0.2693              -24.95          4.175          56.63          61.86         -18.31         -5.529         -153.5           79.5         -112.3          112.7          132.9
    0.2992              -24.95          4.175          56.63          61.86         -18.31         -5.527         -153.5           79.5         -112.3          112.7          132.9
    0.3292              -24.96          4.175          56.63          61.86         -18.31         -5.526         -153.4          79.49         -112.2          112.7          132.9
    0.3591              -24.96          4.175          56.63          61.87         -18.31         -5.524         -153.3          79.48         -112.2          112.7          132.9
     0.389              -24.97          4.175          56.63          61.87         -18.31         -5.523         -153.3          79.47         -112.1          112.7          132.9
    0.4189              -24.97          4.174          56.63          61.87         -18.31         -5.521         -153.2          79.46         -112.1          112.7          132.9
    0.4489              -24.97          4.174          56.64          61.87         -18.31         -5.519         -153.1          79.45         -112.0          112.7          132.9
    0.4788              -24.98          4.174          56.64          61.88          -18.3         -5.517         -153.0          79.43         -112.0          112.7          132.9
    0.5087              -24.99          4.174          56.64          61.88          -18.3         -5.515         -153.0          79.42         -111.9          112.6          132.9
    0.5386              -24.99          4.174          56.64          61.89          -18.3         -5.512         -152.9          79.41         -111.8          112.6          132.9
    0.5686               -25.0          4.174          56.65          61.89          -18.3          -5.51         -152.7          79.39         -111.8          112.6          132.8
    0.5985              -25.01          4.174          56.65          61.89          -18.3         -5.507         -152.6          79.37         -111.7          112.6          132.8
    0.6284              -25.01          4.174          56.65           61.9         -18.29         -5.503         -152.5          79.35         -111.6          112.6          132.8
    0.6583              -25.02          4.173          56.66          61.91         -18.29           -5.5         -152.3          79.33         -111.5          112.6          132.8
    0.6883              -25.03          4.173          56.66          61.91         -18.29         -5.496         -152.2          79.31         -111.3          112.5          132.8
    0.7182              -25.04          4.173          56.66          61.92         -18.28         -5.491         -152.0          79.28         -111.2          112.5          132.8
    0.7481              -25.06          4.173          56.67          61.93         -18.28         -5.486         -151.8          79.25         -111.1          112.5          132.8
     0.778              -25.07          4.172          56.67          61.93         -18.28         -5.481         -151.6          79.22         -110.9          112.5          132.8
    0.8079              -25.08          4.172          56.68          61.94         -18.27         -5.474         -151.3          79.18         -110.7          112.4          132.7
    0.8379               -25.1          4.172          56.69          61.96         -18.26         -5.467         -151.0          79.14         -110.5          112.4          132.7
    0.8678              -25.12          4.171          56.69          61.97         -18.26         -5.459         -150.7          79.09         -110.3          112.3          132.7
    0.8977              -25.14          4.171           56.7          61.98         -18.25          -5.45         -150.3          79.04         -110.0          112.3          132.7
    0.9276              -25.17           4.17          56.71           62.0         -18.24          -5.44         -149.9          78.97         -109.7          112.2          132.6
    0.9576               -25.2           4.17          56.73          62.02         -18.23         -5.427         -149.4           78.9         -109.3          112.2          132.6
    0.9875              -25.23          4.169          56.74          62.04         -18.22         -5.413         -148.9          78.82         -108.9          112.1          132.5
     1.017              -25.27          4.168          56.76          62.07         -18.21         -5.397         -148.2          78.72         -108.4          112.0          132.5
     1.047              -25.32          4.167          56.78           62.1         -18.19         -5.377         -147.4           78.6         -107.8          111.9          132.4
     1.077              -25.38          4.166           56.8          62.13         -18.18         -5.354         -146.5          78.47         -107.2          111.8          132.3
     1.107              -25.45          4.165          56.83          62.18         -18.15         -5.327         -145.4           78.3         -106.3          111.6          132.3
     1.137              -25.53          4.163          56.86          62.23         -18.13         -5.293         -144.0           78.1         -105.3          111.4          132.1
     1.167              -25.63          4.161           56.9          62.29          -18.1         -5.252         -142.3          77.86         -104.1          111.2          132.0
     1.197              -25.75          4.159          56.95          62.37         -18.06         -5.201         -140.3          77.56         -102.6          110.9          131.8
     1.227              -25.91          4.156          57.01          62.47         -18.01         -5.138         -137.8          77.18         -100.8          110.6          131.6
     1.257               -26.1          4.152          57.09           62.6         -17.94         -5.059         -134.5          76.71         -98.42          110.2          131.4
     1.287              -26.35          4.147          57.19          62.75         -17.87         -4.958         -130.5          76.11         -95.43          109.6          131.1
     1.317              -26.67           4.14          57.32          62.96         -17.76         -4.829         -125.2          75.34          -91.6          108.9          130.6
     1.347              -27.07          4.132          57.48          63.22         -17.63         -4.663         -118.5          74.35         -86.69          108.0          130.1
     1.377              -27.59          4.122          57.69          63.55         -17.47         -4.451         -110.0          73.09         -80.42          106.8          129.4
     1.406              -28.25          4.109          57.95          63.97         -17.26         -4.184         -99.22          71.51         -72.53          105.4          128.6
     1.436              -29.04          4.093          58.27          64.47         -17.01          -3.86         -86.11          69.58         -62.92          103.6          127.5
     1.466              -29.96          4.074          58.64          65.06         -16.71         -3.483         -70.91          67.34         -51.78          101.6          126.3
     1.496              -30.96          4.054          59.04           65.7         -16.39         -3.076         -54.45          64.92         -39.72          99.33          125.0
     1.526              -31.96          4.034          59.44          66.34         -16.07         -2.668         -37.99          62.49         -27.66           97.1          123.6
     1.556              -32.89          4.016          59.81          66.93         -15.78         -2.292         -22.79          60.26         -16.52          95.05          122.4
     1.586              -33.68            4.0          60.13          67.44         -15.52         -1.967         -9.672          58.32         -6.904          93.27          121.4
